{"title":"The Wylds 2010 R4 DvDRip XviD Feel-Free","uid":6598053,"size":1427670300,"categoryP":"video","categoryS":"movies","magnet":"?xt=urn:btih:c5e13b7f850dcde79beaf68bc356492bd318728f&amp;dn=The+Wylds+2010+R4+DvDRip+XviD+Feel-Free&amp;tr=udp%3A%2F%2Ftracker.openbittorrent.com%3A80&amp;tr=udp%3A%2F%2Fopen.demonii.com%3A1337&amp;tr=udp%3A%2F%2Ftracker.coppersurfer.tk%3A6969&amp;tr=udp%3A%2F%2Fexodus.desync.com%3A6969","seeders":0,"leechers":1,"uploader":".BONE.","files":8,"time":1313097541,"description":"\nGenre:Action | Adventure | Drama\nLanguage:English\n &lt;a href=&quot;\nhttp://www.imdb.com/title/tt1336619/&quot; rel=&quot;nofollow&quot; target=&quot;_NEW&quot;&gt;\nhttp://www.imdb.com/title/tt1336619/&lt;/a&gt;\n\nSource:R4.NTSC.DVDR-TDP Thanks!\n\nFormat : AVI\nFormat/Info : Audio Video Interleave\nFile size : 1.33 GiB\nDuration : 1h 49mn\nOverall bit rate : 1 730 Kbps\n\nVideo\nID : 0\nFormat : MPEG-4 Visual\nFormat profile : Advanced Simple@L5\nFormat settings, BVOP : Yes\nFormat settings, QPel : No\nFormat settings, GMC : No warppoints\nFormat settings, Matrix : Default (H.263)\nCodec ID : XVID\nCodec ID/Hint : XviD\nDuration : 1h 49mn\nBit rate : 1 465 Kbps\nWidth : 640 pixels\nHeight : 360 pixels\nDisplay aspect ratio : 16:9\nFrame rate : 23.976 fps\nColor space : YUV\nChroma subsampling : 4:2:0\nBit depth : 8 bits\nScan type : Progressive\nBits/(Pixel*Frame) : 0.265\nStream size : 1.12 GiB (85%)\nWriting library : XviD 1.2.1 (UTC 2008-12-04)\n\nAudio\nID : 1\nFormat : AC-3\nFormat/Info : Audio Coding 3\nMode extension : CM (complete main)\nCodec ID : 2000\nDuration : 1h 49mn\nBit rate mode : Constant\nBit rate : 256 Kbps\nChannel(s) : 2 channels\nChannel positions : Front: L R\nSampling rate : 48.0 KHz\nBit depth : 16 bits\nStream size : 201 MiB (15%)\nAlignment : Aligned on interleaves\nInterleave, duration : 42 ms (1.00 video frame)\nInterleave, preload duration : 512 ms\n\n\nPlot:\nChris, a runaway child, lives with a group of misfits in a junkyard, stealing to survive. When a traveling preacher tells him that his father is alive and wants him to come home.\n &lt;a href=&quot;\nhttp://www.pix2links.com/images/66960586926393617035.png&quot; rel=&quot;nofollow&quot; target=&quot;_NEW&quot;&gt;\nhttp://www.pix2links.com/images/66960586926393617035.png&lt;/a&gt;\n &lt;a href=&quot;\nhttp://www.pix2links.com/images/57037327939932568505.png&quot; rel=&quot;nofollow&quot; target=&quot;_NEW&quot;&gt;\nhttp://www.pix2links.com/images/57037327939932568505.png&lt;/a&gt;\n &lt;a href=&quot;\nhttp://www.pix2links.com/images/48938827822409971072.png&quot; rel=&quot;nofollow&quot; target=&quot;_NEW&quot;&gt;\nhttp://www.pix2links.com/images/48938827822409971072.png&lt;/a&gt;\n &lt;a href=&quot;\nhttp://www.pix2links.com/images/41941461275027396410.png&quot; rel=&quot;nofollow&quot; target=&quot;_NEW&quot;&gt;\nhttp://www.pix2links.com/images/41941461275027396410.png&lt;/a&gt;","torrent":{"xt":"urn:btih:c5e13b7f850dcde79beaf68bc356492bd318728f","amp;dn":"The+Wylds+2010+R4+DvDRip+XviD+Feel-Free","amp;tr":["udp%3A%2F%2Ftracker.openbittorrent.com%3A80","udp%3A%2F%2Fopen.demonii.com%3A1337","udp%3A%2F%2Ftracker.coppersurfer.tk%3A6969","udp%3A%2F%2Fexodus.desync.com%3A6969"],"infoHash":"c5e13b7f850dcde79beaf68bc356492bd318728f","infoHashBuffer":{"type":"Buffer","data":[197,225,59,127,133,13,205,231,155,234,246,139,195,86,73,43,211,24,114,143]},"announce":[],"urlList":[]}}